<svg width="1920" height="275" viewBox="0 0 1920 275" fill="none" xmlns="http://www.w3.org/2000/svg">
<path fill-rule="evenodd" clip-rule="evenodd" d="M1959.08 43.8551C1959.08 43.8551 1994 50.5033 1932 64.0033C1870 77.5033 1730.61 16.0849 1621.5 29.0033C1522.16 40.7645 1436.81 83.0959 1411 83.0959C1356.83 83.0959 1302.67 42.7996 1248.5 57.9107C1194.33 73.0218 1140.17 143.54 1086 153.614C1031.83 163.688 977.668 113.318 923.501 103.244C869.334 93.1699 815.167 123.392 761 113.318C706.834 103.244 652.667 52.8736 598.5 32.7255C544.333 12.5774 465.008 34.0039 422 38.0033C378.993 42.0026 235.407 -0.424342 131 0.00321039C26.5928 0.430763 -26.7582 32.7255 -37.9171 32.7255H-65.0002V274.503H-37.9171C-10.8337 274.503 381.833 274.503 436 274.503C490.167 274.503 544.333 274.503 598.5 274.503C652.667 274.503 706.834 274.503 761 274.503C815.167 274.503 869.334 274.503 923.501 274.503C977.668 274.503 1031.83 274.503 1086 274.503C1140.17 274.503 1194.33 274.503 1248.5 274.503C1302.67 274.503 1356.83 274.503 1411 274.503C1465.17 274.503 1909.42 274.503 1936.5 274.503H1963.58L1959.08 43.8551Z" fill="#666FEB"/>
</svg>
