<svg width="1920" height="273" viewBox="0 0 1920 273" fill="none" xmlns="http://www.w3.org/2000/svg">
<path fill-rule="evenodd" clip-rule="evenodd" d="M-45 0C-45 0 156.522 81.1118 211 84C265.478 86.8882 380.5 -6 461.083 34.537C541.667 75.0741 542.333 91.6481 596.5 91.6481C650.667 91.6481 704.833 53.5741 759 67.8519C813.167 82.1296 867.333 148.759 921.5 158.278C975.667 167.796 1029.83 120.204 1084 110.685C1138.17 101.167 1192.33 129.722 1246.5 120.204C1300.67 110.685 1354.83 63.0926 1409 44.0556C1463.17 25.0185 1510.42 82.133 1571.5 87.5C1632.58 92.867 1782.03 42.0744 1876.5 44.0556C2017.96 47.022 2078.26 99 2094.5 99H2116.08L2108.5 272.5H2081.42C2054.33 272.5 1625.67 272.5 1571.5 272.5C1517.33 272.5 1463.17 272.5 1409 272.5C1354.83 272.5 1300.67 272.5 1246.5 272.5C1192.33 272.5 1138.17 272.5 1084 272.5C1029.83 272.5 975.667 272.5 921.5 272.5C867.333 272.5 813.167 272.5 759 272.5C704.833 272.5 650.667 272.5 596.5 272.5C542.333 272.5 488.167 272.5 461.083 272.5L-45 257V0Z" fill="#3842D2"/>
</svg>
