<svg width="144" height="140" viewBox="0 0 144 140" fill="none" xmlns="http://www.w3.org/2000/svg">
<path fill-rule="evenodd" clip-rule="evenodd" d="M22.7368 12.3529C22.7368 9.07674 21.5391 5.93472 19.4071 3.61809C17.2751 1.30147 14.3835 0 11.3684 0C8.35333 0 5.46173 1.30147 3.32973 3.61809C1.19774 5.93472 0 9.07674 0 12.3529V127.647C0 130.923 1.19774 134.065 3.32973 136.382C5.46173 138.699 8.35333 140 11.3684 140H132.632C135.647 140 138.538 138.699 140.67 136.382C142.802 134.065 144 130.923 144 127.647C144 124.371 142.802 121.229 140.67 118.912C138.538 116.596 135.647 115.294 132.632 115.294H22.7368V12.3529ZM53.0526 70C53.0526 66.7238 51.8549 63.5818 49.7229 61.2651C47.5909 58.9485 44.6993 57.6471 41.6842 57.6471C38.6691 57.6471 35.7775 58.9485 33.6455 61.2651C31.5135 63.5818 30.3158 66.7238 30.3158 70V94.7059C30.3158 97.9821 31.5135 101.124 33.6455 103.441C35.7775 105.757 38.6691 107.059 41.6842 107.059C44.6993 107.059 47.5909 105.757 49.7229 103.441C51.8549 101.124 53.0526 97.9821 53.0526 94.7059V70ZM72 16.4706C75.0151 16.4706 77.9067 17.7721 80.0387 20.0887C82.1707 22.4053 83.3684 25.5473 83.3684 28.8235V94.7059C83.3684 97.9821 82.1707 101.124 80.0387 103.441C77.9067 105.757 75.0151 107.059 72 107.059C68.9849 107.059 66.0933 105.757 63.9613 103.441C61.8293 101.124 60.6316 97.9821 60.6316 94.7059V28.8235C60.6316 25.5473 61.8293 22.4053 63.9613 20.0887C66.0933 17.7721 68.9849 16.4706 72 16.4706ZM113.684 53.5294C113.684 50.2532 112.486 47.1112 110.354 44.7946C108.222 42.4779 105.331 41.1765 102.316 41.1765C99.3007 41.1765 96.4091 42.4779 94.2771 44.7946C92.1451 47.1112 90.9474 50.2532 90.9474 53.5294V94.7059C90.9474 97.9821 92.1451 101.124 94.2771 103.441C96.4091 105.757 99.3007 107.059 102.316 107.059C105.331 107.059 108.222 105.757 110.354 103.441C112.486 101.124 113.684 97.9821 113.684 94.7059V53.5294Z" fill="#0B148E"/>
<path fill-rule="evenodd" clip-rule="evenodd" d="M53.0528 70.0001C53.0528 66.7239 51.855 63.5819 49.723 61.2653C47.591 58.9486 44.6994 57.6472 41.6843 57.6472C38.6692 57.6472 35.7776 58.9486 33.6456 61.2653C31.5137 63.5819 30.3159 66.7239 30.3159 70.0001V94.706C30.3159 97.9822 31.5137 101.124 33.6456 103.441C35.7776 105.757 38.6692 107.059 41.6843 107.059C44.6994 107.059 47.591 105.757 49.723 103.441C51.855 101.124 53.0528 97.9822 53.0528 94.706V70.0001ZM72.0001 16.4707C75.0152 16.4707 77.9068 17.7722 80.0388 20.0888C82.1708 22.4054 83.3685 25.5474 83.3685 28.8236V94.706C83.3685 97.9822 82.1708 101.124 80.0388 103.441C77.9068 105.757 75.0152 107.059 72.0001 107.059C68.985 107.059 66.0934 105.757 63.9614 103.441C61.8294 101.124 60.6317 97.9822 60.6317 94.706V28.8236C60.6317 25.5474 61.8294 22.4054 63.9614 20.0888C66.0934 17.7722 68.985 16.4707 72.0001 16.4707ZM113.684 53.5295C113.684 50.2533 112.487 47.1113 110.355 44.7947C108.223 42.4781 105.331 41.1766 102.316 41.1766C99.3008 41.1766 96.4092 42.4781 94.2772 44.7947C92.1452 47.1113 90.9475 50.2533 90.9475 53.5295V94.706C90.9475 97.9822 92.1452 101.124 94.2772 103.441C96.4092 105.757 99.3008 107.059 102.316 107.059C105.331 107.059 108.223 105.757 110.355 103.441C112.487 101.124 113.684 97.9822 113.684 94.706V53.5295Z" fill="#666FEB"/>
</svg>
