<svg width="165" height="147" viewBox="0 0 165 147" fill="none" xmlns="http://www.w3.org/2000/svg">
<path d="M139 55.6001H0V118.15C0 123.68 2.19669 128.983 6.10682 132.893C10.017 136.803 15.3202 139 20.85 139H118.15C123.68 139 128.983 136.803 132.893 132.893C136.803 128.983 139 123.68 139 118.15V55.6001Z" fill="#666FEB"/>
<path d="M118.15 13.8999H111.2V34.7499C111.2 36.5932 110.468 38.3609 109.164 39.6643C107.861 40.9677 106.093 41.6999 104.25 41.6999C102.407 41.6999 100.639 40.9677 99.3356 39.6643C98.0322 38.3609 97.3 36.5932 97.3 34.7499V13.8999H41.7V34.7499C41.7 36.5932 40.9678 38.3609 39.6644 39.6643C38.361 40.9677 36.5933 41.6999 34.75 41.6999C32.9067 41.6999 31.139 40.9677 29.8356 39.6643C28.5322 38.3609 27.8 36.5932 27.8 34.7499V13.8999H20.85C15.3202 13.8999 10.017 16.0966 6.10682 20.0067C2.19669 23.9169 0 29.2201 0 34.7499V55.5999H139V34.7499C139 29.2201 136.803 23.9169 132.893 20.0067C128.983 16.0966 123.68 13.8999 118.15 13.8999Z" fill="#0B148E"/>
<path d="M29.8354 39.6644C31.1388 40.9678 32.9066 41.7 34.7498 41.7C36.5931 41.7 38.3608 40.9678 39.6642 39.6644C40.9676 38.361 41.6998 36.5933 41.6998 34.75V6.95C41.6998 5.10675 40.9676 3.33898 39.6642 2.03561C38.3608 0.732229 36.5931 0 34.7498 0C32.9066 0 31.1388 0.732229 29.8354 2.03561C28.532 3.33898 27.7998 5.10675 27.7998 6.95V34.75C27.7998 36.5933 28.532 38.361 29.8354 39.6644Z" fill="#F8F8FE"/>
<path d="M99.3354 39.6644C100.639 40.9678 102.407 41.7 104.25 41.7C106.093 41.7 107.861 40.9678 109.164 39.6644C110.468 38.361 111.2 36.5933 111.2 34.75V6.95C111.2 5.10675 110.468 3.33898 109.164 2.03561C107.861 0.732229 106.093 0 104.25 0C102.407 0 100.639 0.732229 99.3354 2.03561C98.032 3.33898 97.2998 5.10675 97.2998 6.95V34.75C97.2998 36.5933 98.032 38.361 99.3354 39.6644Z" fill="#F8F8FE"/>
<path d="M98 110C98 115.933 99.7595 121.734 103.056 126.667C106.352 131.601 111.038 135.446 116.519 137.716C122.001 139.987 128.033 140.581 133.853 139.424C139.672 138.266 145.018 135.409 149.213 131.213C153.409 127.018 156.266 121.672 157.424 115.853C158.581 110.033 157.987 104.001 155.716 98.5195C153.446 93.0377 149.601 88.3524 144.667 85.0559C139.734 81.7595 133.933 80 128 80C124.06 80 120.159 80.776 116.519 82.2836C112.88 83.7913 109.573 86.001 106.787 88.7868C101.161 94.4129 98 102.044 98 110ZM125 95C125 94.2044 125.316 93.4413 125.879 92.8787C126.441 92.3161 127.204 92 128 92C128.796 92 129.559 92.3161 130.121 92.8787C130.684 93.4413 131 94.2044 131 95V108.266L137.294 111.902C137.977 112.303 138.475 112.957 138.677 113.723C138.88 114.489 138.771 115.304 138.375 115.99C137.979 116.676 137.327 117.178 136.563 117.385C135.798 117.593 134.983 117.49 134.294 117.098L126.5 112.598C126.044 112.335 125.665 111.956 125.402 111.5C125.139 111.044 125 110.527 125 110V95Z" fill="#0B148E"/>
<path d="M128.223 74.2041C135.346 74.2041 142.31 76.3166 148.233 80.2744C154.157 84.2322 158.774 89.857 161.5 96.4385C164.226 103.02 164.939 110.262 163.55 117.249C162.16 124.236 158.729 130.654 153.691 135.691C148.654 140.729 142.236 144.16 135.249 145.55C128.262 146.939 121.02 146.226 114.438 143.5C107.857 140.774 102.232 136.157 98.2744 130.233C94.3166 124.31 92.2041 117.346 92.2041 110.223C92.2041 100.67 95.9991 91.5087 102.754 84.7539C106.099 81.4093 110.069 78.7554 114.438 76.9453C118.808 75.1352 123.493 74.2041 128.223 74.2041Z" fill="#DADCF9"/>
<path d="M128 92C128.796 92 129.559 92.3161 130.121 92.8787C130.684 93.4413 131 94.2044 131 95V108.266L137.294 111.902C137.977 112.303 138.475 112.957 138.677 113.723C138.88 114.489 138.771 115.304 138.375 115.99C137.979 116.676 137.327 117.178 136.563 117.385C135.798 117.593 134.983 117.49 134.294 117.098L126.5 112.598C126.044 112.335 125.665 111.956 125.402 111.5C125.139 111.044 125 110.527 125 110V95C125 94.2044 125.316 93.4413 125.879 92.8787C126.441 92.3161 127.204 92 128 92Z" fill="#F7F7FD"/>
<path d="M98 110C98 115.933 99.7595 121.734 103.056 126.667C106.352 131.601 111.038 135.446 116.519 137.716C122.001 139.987 128.033 140.581 133.853 139.424C139.672 138.266 145.018 135.409 149.213 131.213C153.409 127.018 156.266 121.672 157.424 115.853C158.581 110.033 157.987 104.001 155.716 98.5195C153.446 93.0377 149.601 88.3524 144.667 85.0559C139.734 81.7595 133.933 80 128 80C124.06 80 120.159 80.776 116.519 82.2836C112.88 83.7913 109.573 86.001 106.787 88.7868C101.161 94.4129 98 102.044 98 110ZM125 95C125 94.2044 125.316 93.4413 125.879 92.8787C126.441 92.3161 127.204 92 128 92C128.796 92 129.559 92.3161 130.121 92.8787C130.684 93.4413 131 94.2044 131 95V108.266L137.294 111.902C137.977 112.303 138.475 112.957 138.677 113.723C138.88 114.489 138.771 115.304 138.375 115.99C137.979 116.676 137.327 117.178 136.563 117.385C135.798 117.593 134.983 117.49 134.294 117.098L126.5 112.598C126.044 112.335 125.665 111.956 125.402 111.5C125.139 111.044 125 110.527 125 110V95Z" fill="#0B148E"/>
</svg>
