<svg width="133" height="140" viewBox="0 0 133 140" fill="none" xmlns="http://www.w3.org/2000/svg">
<path d="M133 103.333C133 93.6088 129.147 84.2825 122.288 77.4062C115.428 70.5298 106.125 66.6667 96.4251 66.6667C86.7248 66.6667 77.4218 70.5298 70.5627 77.4062C63.7035 84.2825 59.8501 93.6088 59.8501 103.333C59.8501 113.058 63.7035 122.384 70.5627 129.261C77.4218 136.137 86.7248 140 96.4251 140C106.125 140 115.428 136.137 122.288 129.261C129.147 122.384 133 113.058 133 103.333Z" fill="#F7F7FD"/>
<path d="M0 25C0 23.6739 0.525467 22.4021 1.4608 21.4645C2.39614 20.5268 3.66473 20 4.9875 20C22.6965 20 39.9532 13.7133 56.8575 1C57.7208 0.35089 58.7709 0 59.85 0C60.9291 0 61.9792 0.35089 62.8425 1C79.7468 13.7133 97.0035 20 114.713 20C116.035 20 117.304 20.5268 118.239 21.4645C119.175 22.4021 119.7 23.6739 119.7 25V60C119.7 62.2533 119.611 64.4667 119.434 66.64C110.63 61.0842 100.124 58.8976 89.8417 60.4814C79.5598 62.0652 70.1924 67.3132 63.4588 75.2623C56.7252 83.2114 53.0769 93.3283 53.1836 103.756C53.2902 114.185 57.1447 124.224 64.0395 132.033L61.6787 132.987C60.5036 133.451 59.1964 133.451 58.0213 132.987C19.6707 117.84 0 93.3333 0 60V25Z" fill="#666FEB"/>
<path d="M133 103.333C133 93.6088 129.147 84.2825 122.288 77.4062C115.428 70.5298 106.125 66.6667 96.4251 66.6667C86.7248 66.6667 77.4218 70.5298 70.5627 77.4062C63.7035 84.2825 59.8501 93.6088 59.8501 103.333C59.8501 113.058 63.7035 122.384 70.5627 129.261C77.4218 136.137 86.7248 140 96.4251 140C106.125 140 115.428 136.137 122.288 129.261C129.147 122.384 133 113.058 133 103.333ZM99.7501 106.667L99.7567 123.353C99.7567 124.237 99.4064 125.085 98.7829 125.71C98.1593 126.336 97.3136 126.687 96.4317 126.687C95.5499 126.687 94.7042 126.336 94.0806 125.71C93.4571 125.085 93.1067 124.237 93.1067 123.353V106.667H76.4485C75.5667 106.667 74.7209 106.316 74.0974 105.69C73.4738 105.065 73.1235 104.217 73.1235 103.333C73.1235 102.449 73.4738 101.602 74.0974 100.976C74.7209 100.351 75.5667 100 76.4485 100H93.1001V83.3334C93.1001 82.4494 93.4504 81.6015 94.074 80.9764C94.6975 80.3513 95.5433 80.0001 96.4251 80.0001C97.3069 80.0001 98.1527 80.3513 98.7762 80.9764C99.3998 81.6015 99.7501 82.4494 99.7501 83.3334V100H116.355C117.237 100 118.083 100.351 118.706 100.976C119.33 101.602 119.68 102.449 119.68 103.333C119.68 104.217 119.33 105.065 118.706 105.69C118.083 106.316 117.237 106.667 116.355 106.667H99.7501Z" fill="#0B148E"/>
</svg>
