<svg width="155" height="140" viewBox="0 0 155 140" fill="none" xmlns="http://www.w3.org/2000/svg">
<rect x="68" y="20" width="19" height="87" fill="#F7F7FD"/>
<path fill-rule="evenodd" clip-rule="evenodd" d="M73.7431 10.971C63.5432 4.86184 52.0663 1.19076 40.2096 0.244741C28.3529 -0.701281 16.4377 1.10338 5.39549 5.51766C3.80074 6.15145 2.43359 7.24919 1.47148 8.66841C0.509362 10.0876 -0.00330247 11.7628 1.6009e-05 13.4766V99.4034C1.6009e-05 105.151 5.82359 109.087 11.1748 106.95C20.2177 103.34 29.974 101.866 39.6818 102.643C49.3896 103.42 58.786 106.427 67.1372 111.43L75.5145 116.441C76.1567 116.832 76.8431 116.994 77.5 116.987C78.202 117 78.8934 116.814 79.4929 116.449L87.8629 111.43C96.214 106.427 105.61 103.42 115.318 102.643C125.026 101.866 134.782 103.34 143.825 106.95C145.062 107.443 146.4 107.627 147.724 107.485C149.048 107.342 150.317 106.878 151.42 106.133C152.522 105.387 153.425 104.384 154.049 103.209C154.674 102.035 155 100.725 155 99.396V13.4766C155 9.96875 152.86 6.82204 149.605 5.51766C138.562 1.10677 126.648 -0.694793 114.792 0.253779C102.937 1.20235 91.4622 4.87535 81.2643 10.9857L77.5 13.2408L73.7431 10.971ZM83.0431 28.5838C83.0431 27.1179 82.4599 25.7121 81.4217 24.6756C80.3836 23.6391 78.9756 23.0567 77.5074 23.0567C76.0392 23.0567 74.6312 23.6391 73.5931 24.6756C72.5549 25.7121 71.9717 27.1179 71.9717 28.5838V98.5927C71.9717 100.059 72.5549 101.464 73.5931 102.501C74.6312 103.537 76.0392 104.12 77.5074 104.12C78.9756 104.12 80.3836 103.537 81.4217 102.501C82.4599 101.464 83.0431 100.059 83.0431 98.5927V28.5838Z" fill="#0B148E"/>
<path d="M9.0485 121.01C16.3855 116.738 24.7272 114.486 33.2211 114.486C41.7151 114.486 50.0567 116.738 57.3937 121.01L65.4168 125.683C69.0862 127.82 73.2584 128.947 77.5068 128.947C81.7553 128.947 85.9275 127.82 89.5968 125.683L97.6199 121.01C104.957 116.738 113.299 114.486 121.793 114.486C130.286 114.486 138.628 116.738 145.965 121.01L146.725 121.453C147.354 121.818 147.903 122.304 148.343 122.882C148.783 123.46 149.105 124.119 149.29 124.821C149.475 125.523 149.52 126.255 149.422 126.974C149.324 127.693 149.085 128.386 148.718 129.014C148.352 129.641 147.865 130.19 147.287 130.629C146.708 131.068 146.048 131.39 145.345 131.574C144.641 131.759 143.909 131.804 143.188 131.706C142.468 131.608 141.774 131.369 141.145 131.003L140.385 130.561C134.742 127.275 128.326 125.543 121.793 125.543C115.259 125.543 108.843 127.275 103.2 130.561L95.1695 135.233C89.8083 138.355 83.7132 140 77.5068 140C71.3005 140 65.2054 138.355 59.8442 135.233L51.8137 130.561C46.1703 127.275 39.7543 125.543 33.2211 125.543C26.688 125.543 20.272 127.275 14.6285 130.561L13.8683 131.003C12.5998 131.742 11.0893 131.948 9.6691 131.574C8.24892 131.201 7.03536 130.28 6.29541 129.014C5.55545 127.747 5.34971 126.239 5.72345 124.821C6.09718 123.403 7.01977 122.191 8.28827 121.453L9.0485 121.01Z" fill="#0B148E"/>
<path fill-rule="evenodd" clip-rule="evenodd" d="M73.7431 10.971C63.5432 4.86184 52.0663 1.19076 40.2096 0.244741C28.3529 -0.701281 16.4377 1.10338 5.39549 5.51766C3.80074 6.15145 2.43359 7.24919 1.47148 8.66841C0.509362 10.0876 -0.00330247 11.7628 1.6009e-05 13.4766V99.4034C1.6009e-05 105.151 5.82359 109.087 11.1748 106.95C20.2177 103.34 29.974 101.866 39.6818 102.643C49.3896 103.42 58.786 106.427 67.1372 111.43L75.5145 116.441C76.1567 116.832 76.8431 116.994 77.5 116.987C78.202 117 78.8934 116.814 79.4929 116.449L87.8629 111.43C96.214 106.427 105.61 103.42 115.318 102.643C125.026 101.866 134.782 103.34 143.825 106.95C145.062 107.443 146.4 107.627 147.724 107.485C149.048 107.342 150.317 106.878 151.42 106.133C152.522 105.387 153.425 104.384 154.049 103.209C154.674 102.035 155 100.725 155 99.396V13.4766C155 9.96875 152.86 6.82204 149.605 5.51766C138.562 1.10677 126.648 -0.694793 114.792 0.253779C102.937 1.20235 91.4622 4.87535 81.2643 10.9857L77.5 13.2408L73.7431 10.971ZM83.0431 28.5838C83.0431 27.1179 82.4599 25.7121 81.4217 24.6756C80.3836 23.6391 78.9756 23.0567 77.5074 23.0567C76.0392 23.0567 74.6312 23.6391 73.5931 24.6756C72.5549 25.7121 71.9717 27.1179 71.9717 28.5838V98.5927C71.9717 100.059 72.5549 101.464 73.5931 102.501C74.6312 103.537 76.0392 104.12 77.5074 104.12C78.9756 104.12 80.3836 103.537 81.4217 102.501C82.4599 101.464 83.0431 100.059 83.0431 98.5927V28.5838Z" fill="#666FEB"/>
</svg>
