<svg width="158" height="139" viewBox="0 0 158 139" fill="none" xmlns="http://www.w3.org/2000/svg">
<rect x="42" y="14" width="87" height="89" fill="#F7F7FD"/>
<path d="M38.5 55C46.1145 55 53.5584 57.2579 59.8896 61.4883C66.2208 65.7187 71.1553 71.7318 74.0693 78.7666C76.9833 85.8016 77.7453 93.5434 76.2598 101.012C74.7742 108.48 71.1079 115.34 65.7236 120.725C60.3393 126.109 53.479 129.775 46.0107 131.261C38.5426 132.746 30.8015 131.984 23.7666 129.07C16.7316 126.156 10.7187 121.221 6.48828 114.89C2.25788 108.558 0 101.115 0 93.5C0.000114414 83.2893 4.05629 73.4964 11.2764 66.2764C14.8514 62.7015 19.0957 59.8654 23.7666 57.9307C28.4376 55.9959 33.4442 55 38.5 55Z" fill="#DADCF9"/>
<path d="M11.2355 23.6147C11.2355 17.3517 13.7206 11.3452 18.144 6.91659C22.5675 2.48797 28.5669 0 34.8226 0H134.413C140.669 0 146.668 2.48797 151.091 6.91659C155.515 11.3452 158 17.3517 158 23.6147V102.33C158 108.593 155.515 114.6 151.091 119.029C146.668 123.457 140.669 125.945 134.413 125.945H87.2385C86.8612 125.453 86.4552 124.983 86.0225 124.539L72.9185 111.425C75.3821 106.282 76.7554 100.525 76.7554 94.4589H100.343C101.733 94.4589 103.066 93.906 104.049 92.9219C105.032 91.9377 105.584 90.603 105.584 89.2112C105.584 87.8194 105.032 86.4846 104.049 85.5005C103.066 84.5163 101.733 83.9635 100.343 83.9635H75.3401C73.7236 78.1231 70.7818 72.7354 66.7439 68.2203H116.067C117.457 68.2203 118.791 67.6674 119.774 66.6833C120.757 65.6992 121.309 64.3644 121.309 62.9726C121.309 61.5808 120.757 60.246 119.774 59.2619C118.791 58.2778 117.457 57.7249 116.067 57.7249H51.5853C47.0726 55.987 42.2784 55.0975 37.4434 55.101C27.3796 55.101 18.1911 58.8899 11.2355 65.1242V23.6147ZM42.685 36.734C42.685 38.1258 43.2373 39.4606 44.2203 40.4447C45.2033 41.4288 46.5365 41.9817 47.9266 41.9817H84.6177C86.0079 41.9817 87.3411 41.4288 88.3241 40.4447C89.3071 39.4606 89.8593 38.1258 89.8593 36.734C89.8593 35.3422 89.3071 34.0075 88.3241 33.0233C87.3411 32.0392 86.0079 31.4863 84.6177 31.4863H47.9266C46.5365 31.4863 45.2033 32.0392 44.2203 33.0233C43.2373 34.0075 42.685 35.3422 42.685 36.734ZM37.4434 125.945C44.2365 125.945 50.5265 123.794 55.6632 120.12L73.0496 137.527C74.0381 138.483 75.3622 139.012 76.7365 139C78.1108 138.988 79.4255 138.436 80.3973 137.463C81.3691 136.49 81.9204 135.174 81.9323 133.798C81.9443 132.422 81.416 131.096 80.4612 130.107L63.0801 112.705C67.1656 106.953 69.2021 99.9929 68.8626 92.9427C68.5231 85.8925 65.8273 79.1609 61.208 73.8287C56.5886 68.4965 50.3137 64.8728 43.3905 63.5395C36.4673 62.2061 29.2973 63.2404 23.0317 66.4763C16.7661 69.7122 11.7682 74.9619 8.84029 81.3829C5.91242 87.8038 5.22441 95.0235 6.88672 101.883C8.54903 108.742 12.4652 114.843 18.0067 119.207C23.5481 123.571 30.3933 125.944 37.4434 125.945ZM37.4434 115.45C31.8828 115.45 26.5499 113.238 22.618 109.302C18.686 105.365 16.4771 100.026 16.4771 94.4589C16.4771 88.8918 18.686 83.5527 22.618 79.6161C26.5499 75.6796 31.8828 73.468 37.4434 73.468C43.0041 73.468 48.3369 75.6796 52.2689 79.6161C56.2009 83.5527 58.4098 88.8918 58.4098 94.4589C58.4098 100.026 56.2009 105.365 52.2689 109.302C48.3369 113.238 43.0041 115.45 37.4434 115.45Z" fill="#666FEB"/>
<path d="M37.4434 125.945C44.2365 125.945 50.5265 123.794 55.6632 120.12L73.0496 137.527C74.0381 138.483 75.3622 139.012 76.7365 139C78.1108 138.988 79.4255 138.436 80.3973 137.463C81.3691 136.49 81.9204 135.174 81.9323 133.798C81.9443 132.422 81.416 131.096 80.4612 130.107L63.0801 112.705C67.1656 106.953 69.2021 99.993 68.8626 92.9428C68.5231 85.8926 65.8273 79.161 61.208 73.8288C56.5886 68.4966 50.3137 64.8729 43.3905 63.5396C36.4673 62.2062 29.2973 63.2405 23.0317 66.4764C16.7661 69.7123 11.7682 74.962 8.84029 81.383C5.91242 87.8039 5.22441 95.0236 6.88672 101.883C8.54903 108.742 12.4652 114.844 18.0067 119.207C23.5481 123.571 30.3933 125.944 37.4434 125.945ZM37.4434 115.45C31.8828 115.45 26.5499 113.238 22.618 109.302C18.686 105.365 16.4771 100.026 16.4771 94.459C16.4771 88.8919 18.686 83.5528 22.618 79.6162C26.5499 75.6797 31.8828 73.4681 37.4434 73.4681C43.0041 73.4681 48.3369 75.6797 52.2689 79.6162C56.2009 83.5528 58.4098 88.8919 58.4098 94.459C58.4098 100.026 56.2009 105.365 52.2689 109.302C48.3369 113.238 43.0041 115.45 37.4434 115.45Z" fill="#0B148E"/>
</svg>
