<svg width="137" height="140" viewBox="0 0 137 140" fill="none" xmlns="http://www.w3.org/2000/svg">
<path d="M57.0801 0C58.2155 0 59.3044 0.451529 60.1073 1.25526C60.9101 2.05898 61.3612 3.14907 61.3612 4.28571V8.57143H87.0472C91.2103 8.57143 95.2029 10.227 98.1467 13.174C101.09 16.121 102.744 20.118 102.744 24.2857V55.7143C102.744 58.4857 102.031 61.0857 100.769 63.3486L99.8275 60.5086C99.1849 58.6829 98.0122 57.091 96.4597 55.9371C94.8756 54.8102 92.9805 54.2047 91.0371 54.2047C89.0938 54.2047 87.1986 54.8102 85.6145 55.9371C84.0914 57.0589 82.9385 58.6112 82.3039 60.3943L79.9122 69.2571C79.6687 70.0191 79.3547 70.7448 78.9704 71.4343H27.1131C25.0512 71.4343 23.0096 71.0276 21.1048 70.2376C19.1999 69.4475 17.4692 68.2895 16.0116 66.8297C14.5539 65.3699 13.3978 63.6368 12.6093 61.7296C11.8207 59.8224 11.4153 57.7784 11.416 55.7143V24.2857C11.416 20.118 13.0698 16.121 16.0136 13.174C18.9573 10.227 22.95 8.57143 27.1131 8.57143H52.7991V4.28571C52.7991 3.14907 53.2502 2.05898 54.053 1.25526C54.8559 0.451529 55.9447 0 57.0801 0ZM58.7925 83.3714C58.9067 83.1924 59.0323 83.021 59.1693 82.8571H15.697C11.5339 82.8571 7.54132 84.5128 4.59756 87.4598C1.65379 90.4068 0 94.4037 0 98.5714V102.857C0 114.154 5.4854 123.669 15.5087 130.171C25.3664 136.554 39.4823 140 57.0801 140C74.678 140 88.7939 136.56 98.6516 130.171C99.173 129.829 99.6829 129.48 100.181 129.126C99.5129 128.639 98.9302 128.044 98.4575 127.366C97.5409 126.041 97.0455 124.469 97.0362 122.857C97.0477 122.122 97.1618 121.398 97.3787 120.686L96.6367 121.314C95.0752 122.391 93.224 122.967 91.3282 122.967C89.4324 122.967 87.5813 122.391 86.0198 121.314C84.4673 120.16 83.2946 118.569 82.652 116.743L79.798 108C79.379 106.673 78.7213 105.433 77.8573 104.343C77.5429 103.92 77.1996 103.519 76.8299 103.143C75.4878 101.816 73.8702 100.802 72.0922 100.171L63.1877 97.3143C61.4001 96.6902 59.8595 95.5085 58.7925 93.9429C57.6828 92.4044 57.0854 90.5549 57.0854 88.6571C57.0854 86.7594 57.6828 84.9099 58.7925 83.3714ZM39.9561 48.5714C42.2269 48.5714 44.4047 47.6684 46.0104 46.0609C47.6161 44.4535 48.5181 42.2733 48.5181 40C48.5181 37.7267 47.6161 35.5465 46.0104 33.9391C44.4047 32.3316 42.2269 31.4286 39.9561 31.4286C37.6853 31.4286 35.5075 32.3316 33.9018 33.9391C32.2961 35.5465 31.3941 37.7267 31.3941 40C31.3941 42.2733 32.2961 44.4535 33.9018 46.0609C35.5075 47.6684 37.6853 48.5714 39.9561 48.5714ZM82.7662 40C82.7662 37.7267 81.8641 35.5465 80.2584 33.9391C78.6528 32.3316 76.475 31.4286 74.2042 31.4286C71.9334 31.4286 69.7556 32.3316 68.1499 33.9391C66.5442 35.5465 65.6422 37.7267 65.6422 40C65.6422 42.2733 66.5442 44.4535 68.1499 46.0609C69.7556 47.6684 71.9334 48.5714 74.2042 48.5714C76.475 48.5714 78.6528 47.6684 80.2584 46.0609C81.8641 44.4535 82.7662 42.2733 82.7662 40ZM80.8883 99.0171C82.867 101.009 84.3544 103.435 85.2321 106.103L88.0747 114.84C88.3136 115.512 88.7547 116.094 89.3372 116.506C89.9198 116.917 90.6153 117.138 91.3282 117.138C92.0412 117.138 92.7367 116.917 93.3192 116.506C93.9018 116.094 94.3428 115.512 94.5818 114.84L97.4244 106.097C98.3075 103.439 99.7984 101.023 101.778 99.0431C103.758 97.063 106.173 95.5729 108.829 94.6914L117.562 91.8514C118.237 91.6148 118.821 91.1743 119.234 90.5908C119.647 90.0073 119.87 89.3096 119.87 88.5943C119.87 87.879 119.647 87.1813 119.234 86.5978C118.821 86.0143 118.237 85.5738 117.562 85.3371L117.391 85.2914L108.652 82.4514C105.996 81.57 103.581 80.0799 101.601 78.0998C99.6215 76.1197 98.1306 73.7042 97.2474 71.0457L94.4106 62.3029C94.1742 61.6278 93.7342 61.0429 93.1513 60.6291C92.5684 60.2154 91.8715 59.9931 91.157 59.9931C90.4424 59.9931 89.7456 60.2154 89.1627 60.6291C88.5798 61.0429 88.1398 61.6278 87.9034 62.3029L85.0608 71.0457L84.9866 71.2629C84.0999 73.8551 82.6337 76.2104 80.6999 78.1494C78.766 80.0884 76.4155 81.5598 73.8275 82.4514L65.0942 85.2914C64.4199 85.5281 63.8356 85.9686 63.4223 86.5521C63.009 87.1356 62.787 87.8332 62.787 88.5486C62.787 89.2639 63.009 89.9616 63.4223 90.5451C63.8356 91.1286 64.4199 91.5691 65.0942 91.8057L73.8275 94.6457C76.4931 95.5314 78.9076 97.0343 80.8883 99.0171ZM130.263 119.189L135.503 120.891L135.611 120.914C136.017 121.055 136.368 121.319 136.617 121.669C136.866 122.02 137 122.439 137 122.869C137 123.298 136.866 123.718 136.617 124.068C136.368 124.418 136.017 124.682 135.611 124.823L130.365 126.526C128.774 127.059 127.328 127.955 126.142 129.143C124.955 130.331 124.06 131.779 123.527 133.371L121.82 138.617C121.677 139.021 121.412 139.37 121.063 139.617C120.713 139.864 120.296 139.996 119.868 139.996C119.441 139.996 119.023 139.864 118.674 139.617C118.324 139.37 118.06 139.021 117.916 138.617L116.209 133.371C115.683 131.772 114.791 130.318 113.604 129.126C112.416 127.933 110.967 127.035 109.371 126.503L104.126 124.8C103.72 124.659 103.368 124.395 103.119 124.045C102.87 123.695 102.737 123.276 102.737 122.846C102.737 122.416 102.87 121.997 103.119 121.646C103.368 121.296 103.72 121.032 104.126 120.891L109.371 119.189C110.943 118.641 112.369 117.739 113.537 116.552C114.705 115.365 115.584 113.925 116.107 112.343L117.813 107.097C117.957 106.694 118.221 106.345 118.571 106.098C118.92 105.851 119.338 105.718 119.766 105.718C120.193 105.718 120.611 105.851 120.96 106.098C121.31 106.345 121.574 106.694 121.718 107.097L123.419 112.343C123.948 113.939 124.843 115.388 126.031 116.577C127.219 117.765 128.668 118.66 130.263 119.189Z" fill="#666FEB"/>
<path d="M80.8884 99.017C82.8672 101.008 84.3545 103.435 85.2322 106.103L88.0748 114.84C88.3138 115.512 88.7548 116.094 89.3374 116.506C89.9199 116.917 90.6154 117.138 91.3284 117.138C92.0413 117.138 92.7368 116.917 93.3194 116.506C93.9019 116.094 94.343 115.512 94.5819 114.84L97.4245 106.097C98.3077 103.438 99.7986 101.023 101.778 99.0429C103.758 97.0628 106.173 95.5727 108.829 94.6913L117.562 91.8513C118.237 91.6146 118.821 91.1741 119.234 90.5906C119.648 90.0071 119.87 89.3095 119.87 88.5941C119.87 87.8788 119.648 87.1811 119.234 86.5976C118.821 86.0141 118.237 85.5736 117.562 85.337L117.391 85.2913L108.652 82.4513C105.996 81.5698 103.581 80.0797 101.602 78.0996C99.6216 76.1195 98.1307 73.7041 97.2476 71.0455L94.4107 62.3027C94.1744 61.6276 93.7343 61.0428 93.1514 60.629C92.5686 60.2152 91.8717 59.9929 91.1571 59.9929C90.4426 59.9929 89.7457 60.2152 89.1628 60.629C88.58 61.0428 88.1399 61.6276 87.9036 62.3027L85.061 71.0455L84.9868 71.2627C84.1 73.8549 82.6339 76.2103 80.7 78.1492C78.7661 80.0882 76.4156 81.5596 73.8276 82.4513L65.0943 85.2913C64.42 85.5279 63.8358 85.9684 63.4225 86.5519C63.0091 87.1354 62.7871 87.8331 62.7871 88.5484C62.7871 89.2637 63.0091 89.9614 63.4225 90.5449C63.8358 91.1284 64.42 91.5689 65.0943 91.8056L73.8276 94.6456C76.4932 95.5313 78.9077 97.0341 80.8884 99.017ZM130.263 119.188L135.503 120.891L135.611 120.914C136.017 121.055 136.369 121.319 136.617 121.669C136.866 122.019 137 122.439 137 122.868C137 123.298 136.866 123.717 136.617 124.068C136.369 124.418 136.017 124.682 135.611 124.823L130.365 126.526C128.774 127.059 127.329 127.955 126.142 129.143C124.955 130.331 124.06 131.778 123.527 133.371L121.821 138.617C121.677 139.02 121.413 139.37 121.063 139.617C120.714 139.863 120.296 139.996 119.868 139.996C119.441 139.996 119.023 139.863 118.674 139.617C118.324 139.37 118.06 139.02 117.916 138.617L116.21 133.371C115.684 131.772 114.791 130.318 113.604 129.125C112.417 127.933 110.967 127.035 109.371 126.503L104.126 124.8C103.72 124.659 103.368 124.395 103.119 124.045C102.871 123.695 102.737 123.275 102.737 122.846C102.737 122.416 102.871 121.997 103.119 121.646C103.368 121.296 103.72 121.032 104.126 120.891L109.371 119.188C110.944 118.641 112.369 117.739 113.537 116.552C114.705 115.365 115.584 113.925 116.107 112.343L117.814 107.097C117.957 106.694 118.222 106.344 118.571 106.097C118.921 105.851 119.338 105.718 119.766 105.718C120.193 105.718 120.611 105.851 120.96 106.097C121.31 106.344 121.574 106.694 121.718 107.097L123.419 112.343C123.949 113.938 124.843 115.388 126.031 116.577C127.219 117.765 128.668 118.659 130.263 119.188Z" fill="#0B148E"/>
</svg>
