<svg width="309" height="109" viewBox="0 0 309 109" fill="none" xmlns="http://www.w3.org/2000/svg">
<path fill-rule="evenodd" clip-rule="evenodd" d="M29.3493 11.2748C19.1001 13.4869 7.45197 19.1275 0 26.7551V97.5469C2.22808 98.2106 31.1931 107.944 33.4212 108.608C33.4212 107.944 33.4212 73.656 33.4212 73.2135C33.9782 73.4349 47.3398 76.3106 56.2591 76.3106C65.3942 76.3106 114.15 75.7622 106.208 37.8699C104.671 30.5363 91.0171 20.0123 83.3303 19.1275C83.3303 22.8881 83.3303 22.8881 83.2189 25.6532C81.5478 25.6532 79.6539 25.6532 77.9829 25.6532C77.9829 23.7933 77.9829 22.3545 77.9829 20.1229C76.4232 20.1229 72.0505 20.1229 69.9339 20.1229C69.9339 21.1601 69.9339 21.0463 69.9339 21.6151C68.7318 22.2901 65.8931 23.419 64.6144 23.5517V11.2742C54.1128 9.33152 39.5985 9.06267 29.3493 11.2748ZM38.3531 13.7887C43.8431 15.1905 43.0584 20.9845 40.9967 25.1165C39.7713 27.5725 47.0125 29.5407 51.3388 27.5725C56.4819 25.2326 52.2485 38.6104 44.5616 41.0437C36.8748 43.4771 21.7238 39.9377 24.5089 31.1998C27.1024 23.0629 29.4107 23.8998 24.5089 20.0286C30.3019 20.1392 30.3019 11.7331 38.3531 13.7887ZM16.1536 30.6468C16.1536 32.1953 17.379 35.5134 19.8299 37.7256C10.9176 37.7256 8.68952 26.6649 17.6018 26.6649C16.5992 28.7665 16.1536 29.0983 16.1536 30.6468ZM66.0626 28.0866C71.9179 26.8013 74.8689 33.7525 74.8602 36.3834C72.1898 33.3957 60.2074 29.3719 66.0626 28.0866ZM85.1127 32.9532C94.5045 37.9173 78.3171 48.8805 71.6328 46.226C72.6854 45.7299 73.5267 46.5578 77.203 42.576C80.8794 38.5942 80.4162 30.4708 85.1127 32.9532ZM65.2334 44.1117C63.0947 46.5004 54.8108 49.2286 51.0231 46.5741C57.5246 45.2147 64.3163 40.7776 66.6196 37.7256C67.297 39.5617 67.372 41.7229 65.2334 44.1117ZM6.68425 40.0317C27.3553 60.5547 81.7655 63.396 100.264 37.8196C106.691 72.0676 42.8663 70.0464 24.5089 59.9408C24.5089 60.162 24.5089 92.9014 24.5089 93.1227C22.2808 92.4591 6.68425 87.15 4.45616 86.4863C4.45616 86.0439 4.45616 38.0408 4.45616 37.8196C4.67897 38.0408 6.50005 39.8488 6.68425 40.0317ZM100.638 71.9334C85.8213 84.653 63.8576 87.2053 40.1055 82.062C40.1055 85.7489 40.1055 89.4358 40.1055 93.1227C69.1313 96.9894 82.486 94.7164 92.1751 90.5004C103.066 85.7613 106.162 79.4578 106.162 79.4578C106.162 79.4578 106.208 66.071 106.208 65.8498C105.985 66.0711 101.873 70.8734 100.638 71.9334Z" fill="#F8F8FE"/>
<ellipse cx="33.979" cy="19.5364" rx="1.34128" ry="1.33136" fill="#F8F8FE"/>
<path fill-rule="evenodd" clip-rule="evenodd" d="M71.4126 0C69.4073 6.91345e-09 67.0592 1.24158 66.6222 2.97763C65.5082 7.40378 65.7424 15.8688 65.7031 21.4464C66.9523 21.2178 67.9701 20.7434 69.0731 20.1287C69.0731 19.2066 69.0731 19.0083 69.0731 18.0862C72.0068 18.0862 75.0281 18.0862 77.9617 18.0862C78.0731 17.5329 78.0246 15.26 77.9855 11.6085C77.9072 4.31534 78.1137 3.75256 76.6486 2.13404C75.1835 0.515507 73.4179 -6.91345e-09 71.4126 0ZM82.779 2.13404C81.3211 2.83478 80.1071 4.2593 79.6274 5.83195C79.2604 7.03562 79.242 7.55963 79.2905 15.4365L79.3223 24.0016C80.3621 24.0016 81.4019 24.0016 82.4416 24.0016C82.499 23.9448 82.3362 20.5918 82.3362 15.9298C82.3362 7.48154 82.3378 7.45046 82.7757 6.62787C83.8921 4.53081 86.8486 4.56746 87.9929 6.69272C88.4038 7.45564 88.4242 7.72888 88.4845 13.2593L88.5475 19.0295C89.4556 19.4901 90.354 19.9836 91.2799 20.4077C91.3645 20.4467 91.408 17.2536 91.3765 13.3122C91.3216 6.43599 91.3023 6.10941 90.9018 5.24844C89.515 2.26807 85.8617 0.65239 82.779 2.13404ZM73.1951 4.20303C74.4351 5.04385 74.3436 6.21775 74.4205 10.0594C74.4205 13.1939 74.4205 13.4896 74.3483 13.9168C74.1331 13.9168 70.6328 13.9168 69.0731 13.9168C69.0731 11.4018 68.8503 7.07879 69.4073 5.30133C70.5214 3.20758 71.8443 3.28738 73.1951 4.20303Z" fill="#F8F8FE"/>
<path d="M153.435 52.2662H148.003C147.931 51.7085 147.782 51.2051 147.558 50.7561C147.333 50.307 147.036 49.9232 146.667 49.6045C146.298 49.2858 145.859 49.0431 145.352 48.8766C144.853 48.7027 144.299 48.6158 143.69 48.6158C142.611 48.6158 141.68 48.8802 140.898 49.4089C140.123 49.9376 139.525 50.7018 139.105 51.7013C138.693 52.7008 138.486 53.9104 138.486 55.33C138.486 56.8075 138.696 58.0461 139.116 59.0456C139.544 60.0379 140.141 60.7875 140.909 61.2945C141.684 61.7943 142.6 62.0442 143.658 62.0442C144.251 62.0442 144.791 61.9681 145.276 61.816C145.769 61.6639 146.2 61.443 146.569 61.1533C146.946 60.8563 147.254 60.4978 147.493 60.0777C147.739 59.6504 147.909 59.1687 148.003 58.6327L153.435 58.6653C153.341 59.6504 153.055 60.6209 152.577 61.577C152.106 62.533 151.458 63.4058 150.632 64.1953C149.807 64.9775 148.8 65.6004 147.612 66.064C146.432 66.5275 145.077 66.7593 143.549 66.7593C141.535 66.7593 139.732 66.3175 138.138 65.4338C136.552 64.543 135.299 63.2465 134.379 61.5444C133.46 59.8423 133 57.7708 133 55.33C133 52.8819 133.467 50.8068 134.401 49.1047C135.335 47.4026 136.599 46.1098 138.193 45.2261C139.786 44.3425 141.572 43.9007 143.549 43.9007C144.896 43.9007 146.142 44.089 147.286 44.4656C148.431 44.835 149.437 45.3782 150.307 46.0953C151.176 46.8051 151.882 47.6779 152.425 48.7136C152.968 49.7493 153.305 50.9335 153.435 52.2662ZM156.513 66.4551V49.7674H161.825V55.9818H162.999L167.051 49.7674H173.2L167.584 58.1221L173.255 66.4551H167.03L163.368 60.9143H161.825V66.4551H156.513ZM179.947 59.5779L185.282 49.7674H190.388V66.4551H185.358V56.612L180.034 66.4551H174.917V49.7674H179.947V59.5779ZM192.955 66.4551L192.922 62.3592H193.454C193.816 62.3592 194.132 62.2651 194.4 62.0767C194.668 61.8884 194.892 61.5878 195.073 61.175C195.254 60.7549 195.399 60.2153 195.508 59.5562C195.616 58.8971 195.685 58.0968 195.714 57.1552L195.986 49.7674H209.197V66.4551H204.167V53.8307H200.712L200.451 58.6327C200.386 60.0451 200.201 61.2511 199.897 62.2506C199.6 63.2429 199.194 64.0468 198.68 64.6625C198.173 65.2781 197.572 65.7308 196.877 66.0205C196.181 66.3102 195.395 66.4551 194.519 66.4551H192.955ZM211.628 66.4551L211.595 62.3592H212.127C212.49 62.3592 212.805 62.2651 213.073 62.0767C213.341 61.8884 213.565 61.5878 213.746 61.175C213.927 60.7549 214.072 60.2153 214.181 59.5562C214.289 58.8971 214.358 58.0968 214.387 57.1552L214.659 49.7674H227.87V66.4551H222.84V53.8307H219.385L219.124 58.6327C219.059 60.0451 218.874 61.2511 218.57 62.2506C218.273 63.2429 217.867 64.0468 217.353 64.6625C216.846 65.2781 216.245 65.7308 215.55 66.0205C214.854 66.3102 214.069 66.4551 213.192 66.4551H211.628ZM250.791 44.2049V66.4551H245.489V48.5072H237.232V66.4551H231.93V44.2049H250.791ZM258.206 72.7129C257.568 72.7129 256.967 72.6622 256.402 72.5608C255.837 72.4667 255.352 72.3399 254.947 72.1806L256.12 68.3237C256.641 68.4976 257.112 68.599 257.532 68.6279C257.96 68.6569 258.325 68.5881 258.63 68.4215C258.941 68.2622 259.18 67.9761 259.347 67.5632L259.553 67.0635L253.621 49.7674H259.184L262.258 61.6748H262.432L265.55 49.7674H271.145L264.855 68.0521C264.551 68.9647 264.12 69.7687 263.562 70.464C263.012 71.1666 262.298 71.717 261.422 72.1154C260.553 72.5138 259.481 72.7129 258.206 72.7129ZM271.023 66.4551L270.99 62.3592H271.523C271.885 62.3592 272.2 62.2651 272.468 62.0767C272.736 61.8884 272.961 61.5878 273.142 61.175C273.323 60.7549 273.468 60.2153 273.576 59.5562C273.685 58.8971 273.754 58.0968 273.783 57.1552L274.054 49.7674H287.265V66.4551H282.235V53.8307H278.78L278.519 58.6327C278.454 60.0451 278.27 61.2511 277.965 62.2506C277.668 63.2429 277.263 64.0468 276.749 64.6625C276.242 65.2781 275.64 65.7308 274.945 66.0205C274.25 66.3102 273.464 66.4551 272.588 66.4551H271.023ZM289.696 66.4551L289.664 62.3592H290.196C290.558 62.3592 290.873 62.2651 291.141 62.0767C291.409 61.8884 291.634 61.5878 291.815 61.175C291.996 60.7549 292.141 60.2153 292.249 59.5562C292.358 58.8971 292.427 58.0968 292.456 57.1552L292.727 49.7674H305.938V66.4551H300.908V53.8307H297.453L297.193 58.6327C297.127 60.0451 296.943 61.2511 296.639 62.2506C296.342 63.2429 295.936 64.0468 295.422 64.6625C294.915 65.2781 294.314 65.7308 293.618 66.0205C292.923 66.3102 292.137 66.4551 291.261 66.4551H289.696Z" fill="#F8F8FE"/>
</svg>
