<svg width="202" height="71" viewBox="0 0 202 71" fill="none" xmlns="http://www.w3.org/2000/svg">
<path fill-rule="evenodd" clip-rule="evenodd" d="M19.1863 7.37134C12.4862 8.81745 4.87152 12.5048 0 17.4912V63.7694C1.45655 64.2033 20.3917 70.5662 21.8482 70.9999C21.8482 70.5661 21.8482 48.1513 21.8482 47.8621C22.2123 48.0068 30.9471 49.8867 36.7778 49.8867C42.7497 49.8867 74.6227 49.5282 69.4307 24.7572C68.4258 19.963 59.5 13.0833 54.4749 12.5048C54.4749 14.9632 54.4749 14.9632 54.402 16.7709C53.3096 16.7709 52.0716 16.7709 50.9792 16.7709C50.9792 15.5549 50.9792 14.6144 50.9792 13.1556C49.9596 13.1556 47.1011 13.1556 45.7173 13.1556C45.7173 13.8336 45.7173 13.7592 45.7173 14.131C44.9315 14.5723 43.0758 15.3103 42.2399 15.397V7.37095C35.3747 6.10097 25.8864 5.92522 19.1863 7.37134ZM25.0723 9.01476C28.6612 9.93109 28.1482 13.7188 26.8005 16.4199C25.9994 18.0255 30.7332 19.3122 33.5613 18.0255C36.9235 16.4959 34.156 25.2413 29.1309 26.832C24.1059 28.4227 14.2013 26.1089 16.022 20.3968C17.7175 15.0775 19.2264 15.6246 16.022 13.0939C19.809 13.1662 19.809 7.67095 25.0723 9.01476ZM10.56 20.0352C10.56 21.0475 11.3611 23.2167 12.9633 24.6628C7.13708 24.6628 5.68053 17.4322 11.5067 17.4322C10.8513 18.806 10.56 19.023 10.56 20.0352ZM43.1866 18.3616C47.0143 17.5213 48.9435 22.0655 48.9378 23.7854C47.1921 21.8323 39.3589 19.2018 43.1866 18.3616ZM55.6401 21.543C61.7797 24.7882 51.1976 31.9551 46.828 30.2197C47.5161 29.8954 48.0661 30.4366 50.4694 27.8336C52.8727 25.2306 52.5699 19.9202 55.6401 21.543ZM42.6445 28.8375C41.2465 30.3991 35.8311 32.1826 33.3549 30.4473C37.6051 29.5586 42.045 26.658 43.5508 24.6628C43.9936 25.8631 44.0426 27.276 42.6445 28.8375ZM4.36964 26.1704C17.8828 39.5867 53.452 41.4442 65.5446 24.7243C69.7463 47.1129 28.0227 45.7916 16.022 39.1854C16.022 39.33 16.022 60.7325 16.022 60.8771C14.5655 60.4434 4.36964 56.9727 2.91309 56.5388C2.91309 56.2496 2.91309 24.8689 2.91309 24.7243C3.05875 24.8689 4.24923 26.0508 4.36964 26.1704ZM65.7893 47.0253C56.1033 55.3404 41.7452 57.0088 26.2179 53.6466C26.2179 56.0567 26.2179 58.4669 26.2179 60.8771C45.1927 63.4049 53.923 61.919 60.257 59.1629C67.3769 56.0649 69.4004 51.9441 69.4004 51.9441C69.4004 51.9441 69.4307 43.1928 69.4307 43.0482C69.285 43.1929 66.5966 46.3323 65.7893 47.0253Z" fill="#000D1A"/>
<ellipse cx="22.2128" cy="12.7706" rx="0.876827" ry="0.870339" fill="#000D1A"/>
<path fill-rule="evenodd" clip-rule="evenodd" d="M46.6836 0C45.3727 4.51948e-09 43.8377 0.811651 43.552 1.94654C42.8237 4.84002 42.9769 10.3738 42.9512 14.02C43.7678 13.8706 44.4331 13.5604 45.1542 13.1586C45.1542 12.5558 45.1542 12.4261 45.1542 11.8233C47.072 11.8233 49.0471 11.8233 50.9649 11.8233C51.0377 11.4616 51.006 9.97584 50.9804 7.58875C50.9293 2.82104 51.0642 2.45314 50.1065 1.39507C49.1487 0.336999 47.9945 -4.51948e-09 46.6836 0ZM54.1141 1.39507C53.161 1.85316 52.3674 2.7844 52.0538 3.81248C51.8138 4.59934 51.8019 4.9419 51.8336 10.0912L51.8543 15.6904C52.5341 15.6904 53.2138 15.6904 53.8935 15.6904C53.931 15.6532 53.8246 13.4613 53.8246 10.4137C53.8246 4.89085 53.8256 4.87053 54.1119 4.33279C54.8417 2.96189 56.7745 2.98585 57.5225 4.37519C57.7911 4.87392 57.8045 5.05254 57.8439 8.66787L57.885 12.44C58.4787 12.7411 59.066 13.0637 59.6713 13.341C59.7266 13.3665 59.755 11.2791 59.7344 8.70249C59.6985 4.20735 59.6859 3.99386 59.4241 3.43103C58.5175 1.48269 56.1293 0.426482 54.1141 1.39507ZM47.8488 2.74762C48.6595 3.29728 48.5996 4.06469 48.6499 6.57605C48.6499 8.62518 48.6499 8.81846 48.6027 9.09774C48.462 9.09774 46.1738 9.09774 45.1542 9.09774C45.1542 7.45361 45.0086 4.62757 45.3727 3.4656C46.101 2.09687 46.9658 2.14904 47.8488 2.74762Z" fill="#000D1A"/>
<path d="M100.304 33.5565H96.7528C96.7055 33.1919 96.6084 32.8628 96.4616 32.5692C96.3149 32.2757 96.1207 32.0247 95.8793 31.8164C95.6378 31.6081 95.3513 31.4495 95.0199 31.3406C94.6932 31.2269 94.331 31.1701 93.9332 31.1701C93.2277 31.1701 92.6193 31.3429 92.108 31.6886C91.6013 32.0342 91.2107 32.5337 90.9361 33.1871C90.6662 33.8406 90.5312 34.6313 90.5312 35.5593C90.5312 36.5252 90.6686 37.3349 90.9432 37.9883C91.2225 38.637 91.6132 39.127 92.1151 39.4585C92.6217 39.7852 93.2206 39.9485 93.9119 39.9485C94.3002 39.9485 94.6529 39.8988 94.9702 39.7994C95.2921 39.6999 95.5739 39.5555 95.8153 39.3661C96.0616 39.172 96.2628 38.9376 96.419 38.663C96.58 38.3836 96.6913 38.0688 96.7528 37.7184L100.304 37.7397C100.242 38.3836 100.055 39.0181 99.7429 39.6431C99.4351 40.2681 99.0114 40.8387 98.4716 41.3548C97.9318 41.8661 97.2737 42.2733 96.4972 42.5763C95.7254 42.8794 94.84 43.0309 93.8409 43.0309C92.5246 43.0309 91.3456 42.7421 90.304 42.1644C89.267 41.582 88.4479 40.7345 87.8466 39.6218C87.2453 38.5091 86.9446 37.1549 86.9446 35.5593C86.9446 33.9589 87.25 32.6024 87.8608 31.4897C88.4716 30.377 89.2978 29.5318 90.3395 28.9542C91.3812 28.3765 92.5483 28.0877 93.8409 28.0877C94.7216 28.0877 95.536 28.2108 96.2841 28.457C97.0322 28.6985 97.6903 29.0536 98.2585 29.5224C98.8267 29.9864 99.2884 30.5569 99.6435 31.234C99.9986 31.9111 100.219 32.6853 100.304 33.5565ZM102.316 42.832V31.9229H105.789V35.9854H106.556L109.205 31.9229H113.225L109.553 37.3846L113.26 42.832H109.191L106.797 39.2099H105.789V42.832H102.316ZM117.635 38.3363L121.123 31.9229H124.461V42.832H121.172V36.3974L117.692 42.832H114.347V31.9229H117.635V38.3363ZM126.138 42.832L126.117 40.1545H126.465C126.702 40.1545 126.908 40.0929 127.083 39.9698C127.258 39.8467 127.405 39.6502 127.523 39.3803C127.642 39.1057 127.737 38.753 127.808 38.3221C127.879 37.8912 127.924 37.368 127.942 36.7525L128.12 31.9229H136.756V42.832H133.468V34.5792H131.21L131.039 37.7184C130.996 38.6417 130.876 39.43 130.677 40.0835C130.483 40.7321 130.218 41.2577 129.881 41.6602C129.55 42.0626 129.157 42.3585 128.702 42.5479C128.248 42.7373 127.734 42.832 127.161 42.832H126.138ZM138.346 42.832L138.324 40.1545H138.672C138.909 40.1545 139.115 40.0929 139.29 39.9698C139.465 39.8467 139.612 39.6502 139.73 39.3803C139.849 39.1057 139.944 38.753 140.015 38.3221C140.086 37.8912 140.131 37.368 140.15 36.7525L140.327 31.9229H148.963V42.832H145.675V34.5792H143.417L143.246 37.7184C143.203 38.6417 143.083 39.43 142.884 40.0835C142.69 40.7321 142.425 41.2577 142.088 41.6602C141.757 42.0626 141.364 42.3585 140.909 42.5479C140.455 42.7373 139.941 42.832 139.368 42.832H138.346ZM163.947 28.2866V42.832H160.482V31.0991H155.084V42.832H151.618V28.2866H163.947ZM168.795 46.9229C168.378 46.9229 167.985 46.8898 167.616 46.8235C167.246 46.762 166.929 46.6791 166.664 46.5749L167.431 44.0536C167.772 44.1673 168.08 44.2335 168.354 44.2525C168.634 44.2714 168.873 44.2264 169.072 44.1175C169.275 44.0134 169.432 43.8263 169.54 43.5565L169.675 43.2298L165.798 31.9229H169.434L171.444 39.707H171.558L173.596 31.9229H177.254L173.141 43.8761C172.942 44.4727 172.661 44.9982 172.296 45.4528C171.936 45.9121 171.47 46.2719 170.897 46.5323C170.329 46.7927 169.628 46.9229 168.795 46.9229ZM177.174 42.832L177.152 40.1545H177.5C177.737 40.1545 177.943 40.0929 178.118 39.9698C178.293 39.8467 178.44 39.6502 178.559 39.3803C178.677 39.1057 178.772 38.753 178.843 38.3221C178.914 37.8912 178.959 37.368 178.978 36.7525L179.155 31.9229H187.792V42.832H184.503V34.5792H182.245L182.074 37.7184C182.032 38.6417 181.911 39.43 181.712 40.0835C181.518 40.7321 181.253 41.2577 180.917 41.6602C180.585 42.0626 180.192 42.3585 179.738 42.5479C179.283 42.7373 178.769 42.832 178.196 42.832H177.174ZM189.381 42.832L189.359 40.1545H189.707C189.944 40.1545 190.15 40.0929 190.325 39.9698C190.5 39.8467 190.647 39.6502 190.766 39.3803C190.884 39.1057 190.979 38.753 191.05 38.3221C191.121 37.8912 191.166 37.368 191.185 36.7525L191.362 31.9229H199.999V42.832H196.71V34.5792H194.452L194.281 37.7184C194.239 38.6417 194.118 39.43 193.919 40.0835C193.725 40.7321 193.46 41.2577 193.124 41.6602C192.792 42.0626 192.399 42.3585 191.945 42.5479C191.49 42.7373 190.976 42.832 190.403 42.832H189.381Z" fill="#000D1A"/>
</svg>
