<svg width="312" height="133" viewBox="0 0 312 133" fill="none" xmlns="http://www.w3.org/2000/svg">
<path d="M13.3081 67.7717C14.8695 71.2355 19.1931 76.171 23.0617 79.5745C24.2705 80.6499 23.3904 80.4229 24.2268 81.1666C25.9124 82.6393 27.6771 83.6543 29.4801 85.0388C30.0806 85.4992 28.9738 85.4821 29.61 85.951C33.0054 88.4448 36.7548 90.3827 40.5547 92.449C59.7263 102.722 80.8112 109.057 102.781 113.095C110.013 114.42 118.875 116.056 126.508 116.389C127.396 116.428 126.906 115.873 127.078 115.844C129.763 115.384 128.812 116.359 130.537 116.608C137.366 117.58 145.07 117.771 151.68 117.408C154.497 117.247 151.641 116.305 154.494 116.79C154.693 116.822 153.996 117.394 154.772 117.425C156.528 117.5 159.845 117.232 161.206 117.183C161.814 117.165 162.305 117.147 162.731 117.129C164.175 117.065 164.887 117.013 166.811 116.876C170.21 116.639 174.292 116.587 177.942 116.145C178.715 116.05 177.641 115.58 178.867 115.377C180.074 115.177 183.389 114.921 184.521 114.944C185.647 114.969 185.215 115.454 185.421 115.535C187.142 116.23 190.734 114.675 191.268 114.587C200.106 113.154 207.869 112.864 216.135 111.615C222.43 110.662 229.112 109.268 235.02 108.077C242.106 106.644 248.087 105.511 254.724 103.479C255.438 103.258 254.412 102.879 255.278 102.608C264.323 99.7456 273.119 96.4237 281.026 91.8356C281.833 91.3581 281.143 92.5092 281.971 92.0559C287.058 89.5901 294.334 83.3005 293.4 79.1136C295.261 76.0642 296.478 71.932 297.13 68.6824C297.533 66.5763 298.147 68.6559 297.854 65.9908C297.771 65.398 297.253 66.189 297.162 65.3094C296.774 61.6136 295.946 57.4374 294.39 54.0011C294.065 53.2828 293.672 53.6573 293.512 53.4807C293.453 53.4148 293.396 53.3454 293.342 53.2728C292.319 51.9703 291.971 49.1591 291.677 48.5913C289.574 44.2006 286.491 41.6081 282.874 38.7372C281.997 38.0578 282.632 39.3817 281.773 38.7541C277.31 35.5171 272.381 32.6942 267.424 30.0383C266.369 29.4717 267.606 29.4224 267.111 29.1249C264.89 27.8217 263.93 28.5751 261.68 27.3926C261.2 27.1455 261.663 26.8103 261.592 26.7238C260.482 25.3691 258.883 26.0284 258.509 25.9137C253.804 24.5216 251.259 22.3737 246.602 21.1427C246.042 20.9985 247.114 21.9588 245.551 21.5197C235.327 18.6712 224.344 16.1303 213.954 13.9033C212.35 13.5611 213.578 13.2968 213.486 13.2238C211.966 12.0724 210.69 13.0798 210.152 13.0416C205.86 12.7022 202.138 11.1996 199.076 12.2502C181.274 9.56257 163.415 9.38569 145.583 8.19365C145.357 8.18008 145.76 7.59148 145.307 7.56703C139.856 7.28416 140.901 8.19288 137.327 9.38284C136.429 9.68196 133.636 8.42 133.387 8.33171C132.486 7.99864 133.378 7.09512 133.078 7.03493C130.586 6.57211 131.107 9.43436 127.778 9.58647C127.674 9.58658 128.086 9.03542 127.804 8.99584C126.928 8.87127 126.078 9.12547 125.221 8.98834C123.261 8.67262 122.478 7.30901 119.579 8.31952C119.213 8.45239 119.891 10.0384 116.917 10.1791C115.725 10.2266 110.524 10.6958 109.075 10.7392C107.6 10.7761 108.554 10.1534 108.448 10.1406C104.414 9.84517 105.889 9.40867 103.794 8.59538C101.699 7.79459 102.527 10.1724 101.759 10.5367C100.982 10.8993 98.0871 10.6782 97.3215 10.5797C96.5811 10.4749 97.4289 10.0256 96.7784 9.99688C92.4734 9.83197 95.1012 11.4537 93.7806 12.0302C90.6886 13.404 87.9698 11.9909 84.936 12.3304C84.1266 12.4217 84.8505 12.7165 84.1459 12.879C81.3439 13.5265 79.6513 13.2636 76.5134 14.4352C75.9988 14.6252 73.6608 16.2367 71.8553 15.8272C71.5978 15.7673 72.1562 15.174 70.9612 15.3435C69.2215 15.5819 65.922 16.2904 64.0945 16.9377C62.738 17.4161 64.5138 17.7117 62.7213 17.9566C61.9269 18.0672 63.2335 17.2542 61.7495 17.4993C60.3255 17.719 56.5219 18.8688 55.161 19.331C53.7801 19.7903 54.7142 20.0863 54.6133 20.1585C53.9892 20.5836 51.5288 21.7059 51.2511 21.8083C41.6206 25.2668 32.4198 28.7475 24.5128 34.5971C22.7917 35.8842 21.2096 37.1872 19.7732 38.5138C19.1112 39.1278 19.9589 39.1784 19.8619 39.2767C17.6895 41.5835 18.464 38.712 16.3972 39.9318C17.492 40.5698 16.2942 41.3711 14.9057 43.0643C14.2489 43.8784 14.9831 43.773 14.9535 43.8759C14.4576 45.4856 12.9942 45.8526 12.6759 45.9507C11.4538 46.3749 11.455 47.778 10.6942 48.0777C9.91221 48.4253 10.2993 46.5849 9.06027 48.5068C9.09465 49.2729 10.9246 48.4753 10.2033 49.9935C8.92894 52.7495 7.16212 56.5946 6.80547 60.6691C6.36688 64.6918 7.46652 68.6977 8.47243 70.8577C10.6001 75.2578 11.8811 76.4157 13.5783 78.6878C17.0132 82.7746 16.2334 80.6889 18.8982 82.629C21.614 84.4526 19.0891 85.0009 19.1653 85.6531C19.2428 86.2932 19.9295 86.2595 20.239 86.815C20.5526 87.3717 19.3546 86.8194 20.3993 87.7511C21.4809 88.7335 24.9848 90.2373 25.664 90.1151C27.0748 89.8654 26.2288 88.0953 29.0613 90.3593C29.2211 90.4861 28.3723 90.593 29.0003 91.0559C34.125 94.7855 39.9241 97.8422 45.559 100.865C46.3223 101.275 45.3656 101.5 45.8087 101.745C50.4666 104.28 49.1871 102.571 52.2868 102.677C51.105 103.808 52.1834 105.305 55.9433 106.831C58.2115 107.743 58.0538 106.967 59.6786 107.1C60.164 107.139 61.6022 108.171 62.0032 107.989C63.3175 107.395 62.2043 105.785 65.9234 107.627C66.0862 107.709 65.3553 108.034 65.932 108.279C69.6712 109.85 70.4769 109.009 74.6622 110.271C77.9339 111.258 83.556 113.684 87.2966 114.869C86.7445 116.48 90.4179 117.129 92.1578 116.39C94.6341 117.125 97.2433 117.75 99.6018 118.52C100.415 118.785 99.7505 119.122 99.8416 119.201C101.238 120.416 102.581 119.574 103.118 119.66C109.004 120.657 113.518 122.554 119.264 122.853C119.467 122.862 120.026 121.774 121.316 122.902C121.398 122.978 119.503 123.158 122.047 123.692C124.734 124.255 129.537 125.749 133.284 125.721C133.871 125.721 135.033 125.465 136.139 125.496C136.806 125.517 137.502 125.639 138.136 125.981C138.365 126.106 138.068 126.416 138.398 126.638C139.484 127.346 140.205 126.211 141.424 127.316C142.679 128.421 145.423 129.356 149.241 128.732C149.36 128.714 150.244 127.788 151.423 127.812C153.356 127.856 155.934 128.034 157.949 127.985C158.907 127.961 158.281 127.387 158.446 127.373C164.714 126.886 169.204 127.167 175.983 126.882C177.204 126.833 180.725 125.736 183.144 126.138C185.827 126.569 183.447 129.718 189.408 128.403C191.847 127.862 194.465 123.892 199.075 125.214C207.466 123.668 215.414 123.452 223.736 121.357C224.11 121.263 225.134 120.053 226.024 119.911C227.347 119.703 228.155 120.043 229.103 119.904C233.08 119.335 236.61 118.251 240.414 117.56C241.857 117.296 241.446 117.882 243.173 117.56C244.899 117.236 245.912 116.365 248.289 116.182C250.091 116.042 252.137 116.958 254.488 116.592C254.285 115.296 255.904 114.967 258.652 113.976C259.179 113.785 258.494 113.477 258.738 113.363C259.729 112.892 260.767 113.036 261.712 112.548C261.941 112.431 261.848 111.993 262.028 111.873C263.561 110.832 266.521 111.137 267.047 111.184C269.036 111.372 269.739 110.592 271.185 110.489C272.627 110.386 270.652 111.237 272.299 110.973C275.762 110.412 280.055 109.162 283.424 108.203C284.767 107.819 283.685 107.512 283.873 107.444C286.67 106.472 289.6 106.234 290.819 104.603C293.685 106.913 292.351 103.822 296.526 103.077C296.849 103.02 297.716 104.262 296.585 104.867C295.438 105.478 293.489 105.638 291.927 106.481C291.57 106.679 289.645 108.703 289.384 108.867C287.158 110.22 286.172 108.24 286.013 108.164C284.163 107.375 281.831 109.57 281.11 109.877C277.824 111.286 274.928 111.745 272.165 112.805C270.379 113.488 270.545 114.912 269.067 115.24C264.174 116.313 262.01 114.788 257.824 117.518C256.923 118.099 258.233 119.402 254.435 118.999C254.197 118.974 251.338 118.459 249.961 119.475C249.788 119.603 249.889 120.045 249.644 120.136C248.012 120.735 246.815 120.618 245.006 121.166C243.19 121.715 241.037 122.41 238.896 122.67C237.606 122.828 235.819 122.309 235.174 122.22C233.352 121.959 231.688 123.256 230.494 122.739C229.294 122.22 231.189 120.762 228.304 120.804C228.406 121.981 228.379 123.212 228.417 124.408C222.233 125.461 216.072 126.075 209.856 127.036C209.083 127.156 209.966 127.667 209.139 127.812C205.666 128.415 202.522 128.388 198.932 129.024C196.107 129.524 193.136 130.55 190.168 131.043C188.232 129.903 183.862 130.81 180.692 130.961C179.557 131.018 179.602 130.653 178.793 130.603C175.756 130.417 177.26 131.487 176.453 131.739C172.986 132.802 172.462 130.144 168.326 130.453C168.1 130.471 165.464 132.044 165.101 132.147C162.776 132.832 164.711 131.665 163.204 131.621C160.441 131.532 158.614 131.244 155.397 131.702C154.492 131.837 152.222 132.741 150.413 132.022C150.177 131.928 150.314 131.455 150.125 131.425C146.715 130.899 146.494 132.367 144.509 132.788C142.433 133.206 139.453 131.944 138.807 131.58C137.186 130.66 140.148 131.373 140.199 131.293C141.301 130.477 139.057 130.472 137.328 130.209C137.259 129.207 136.171 128.805 135.697 129.074C135.479 129.203 135.386 129.487 135.591 129.934C135.592 129.935 135.592 129.936 135.593 129.938C135.667 130.092 136.988 130.108 137.328 130.209C136.796 130.618 136.159 130.882 135.461 130.99C134.109 131.235 132.102 130.748 130.39 129.562C129.171 128.73 130.575 128.234 126.428 127.805C124.634 127.614 125.151 128.728 123.483 128.704C119.618 128.637 115.095 126.755 111.278 126.058C109.872 125.801 111.112 126.642 110.143 126.482C107.68 126.083 105.56 125.163 103.025 124.765C102.799 124.73 103.204 125.423 102.442 125.244C96.5842 123.876 91.5826 122.163 85.5768 120.412C82.6456 119.564 77.3622 118.277 74.3916 117.236C69.2167 115.455 63.1728 112.422 58.7443 110.928C55.8638 109.953 56.278 110.727 54.9074 110.607C52.2439 110.375 48.6747 107.372 48.1938 106.922C48.178 106.911 50.6675 107.833 49.4853 107.003C48.9752 106.111 48.2231 106.932 48.1938 106.922C47.8582 106.643 43.1737 104.385 42.1566 104.004C41.6127 103.812 41.6672 104.443 41.3878 104.333C34.8506 101.744 28.3787 98.4062 22.4497 94.0571C22.3492 93.975 22.8542 93.5798 22.6151 93.3938C19.3696 90.818 16.7024 89.6868 13.692 87.6122C10.707 85.5415 8.72995 83.1479 8.1953 80.8196C6.2805 78.7426 4.46783 75.0172 3.76635 72.6924C3.0763 70.4519 1.90703 70.475 1.7973 70.2773C-0.990254 63.929 -0.254807 58.9967 2.09032 52.5273C3.20533 49.2597 6.38653 43.8615 8.54417 41.2112C10.2995 38.9657 11.3837 38.2531 13.0503 36.3716C13.2738 36.1233 12.6636 35.9751 12.7229 35.8897C14.3257 33.5034 14.2372 35.3788 14.814 35.1567C16.7845 34.5211 17.8711 34.1332 20.3081 31.7094C20.5443 31.4774 20.8026 30.8426 21.125 30.1026C21.5206 29.1029 22.0482 27.906 22.7067 27.3747C24.183 26.2035 23.9571 27.1532 25.5354 25.9465C25.6738 25.8453 25.4161 25.5114 26.4862 24.8765C31.2091 22.0814 36.7351 19.6668 42.0071 17.4851C42.706 17.198 41.5592 16.9543 42.5719 16.5297C47.4003 14.5131 52.7896 12.7392 57.8106 11.6073C59.0227 11.3385 58.401 11.9946 58.6952 12.0515C60.4642 12.3982 62.3878 10.6459 62.7614 10.5262C71.5921 7.64594 78.5786 7.34857 87.7273 5.34485C88.2058 5.23288 91.8495 3.38073 93.7375 4.23566C93.8674 4.2911 95.7211 5.1702 97.1422 4.2131C97.227 4.1541 96.0964 3.71381 97.9524 3.53721C99.7892 3.36344 102.72 2.62941 105.35 2.99664C106.18 3.11145 108.22 4.02919 110.512 2.92416C110.654 2.84478 114.203 0.509249 115.65 1.80343C115.885 2.01765 115.765 3.49958 118.597 2.54033C119.137 2.35621 118.121 2.09484 119.549 1.79214C121.734 1.32764 124.689 1.55065 127.396 0.765245C127.863 0.625796 129.874 -0.468619 131.519 0.232484C131.778 0.342195 131.313 0.852383 132.172 0.876389C136.246 0.994287 140.544 0.572763 144.677 0.886148C146.144 0.997414 145.399 1.79758 146.925 2.00693C148.451 2.21515 151.522 2.43625 153.123 2.09434C154.725 1.75176 152.995 0.454857 155.398 0.391619C165.836 0.132778 176.183 1.41965 186.518 2.45144C188.065 2.60823 186.824 2.03579 189.105 2.24176C197.424 2.93607 212.032 4.49869 219.002 6.7956C224.67 8.61785 217.272 7.85655 221.63 8.98275C223.721 9.52704 226.274 8.5379 226.79 8.59727C231.931 9.17803 235.178 10.6002 239.731 11.551C240.674 11.7504 239.909 10.935 240.71 11.1125C243.471 11.7229 246.075 12.7259 248.717 13.4655C249.882 13.7918 249.803 13.29 250.852 13.6505C253.382 14.5207 255.395 15.3878 257.782 16.6854C257.992 16.8014 256.296 16.8028 258.148 17.4836C261.138 18.5868 264.566 20.3706 268.129 21.4679C269.163 21.7858 269.656 20.847 271.426 22.4743C271.798 22.8236 270.703 23.6657 273.676 23.9283C274.218 23.9804 278.867 24.7571 280.502 26.8677C280.914 27.4012 281.7 29.0864 282.879 29.6719C283.042 29.7494 282.751 28.8832 283.696 29.4434C287.111 31.5085 290.336 34.0767 293.528 37.055C294.354 37.8347 293.593 36.2083 294.809 37.4017C297.897 40.4208 301.113 45.1854 302.616 49.7293C302.754 50.1338 302.884 50.5294 303.005 50.9148C303.496 52.5102 302.658 51.5799 302.65 51.7132C302.47 53.7927 303.858 54.5061 304.11 55.1533C305.554 58.9413 305.559 62.2525 305.81 66.1244C305.865 67.2009 306.401 66.4312 306.453 66.647C306.915 68.967 305.954 67.2363 305.801 68.6686C305.34 72.6489 304.378 77.129 302.747 80.9029C302.141 82.2904 303.438 81.0098 302.866 82.2562C299.396 89.704 293.184 95.3467 287.134 99.0055C285.971 99.705 286.408 98.8218 286.112 98.8852C284.097 99.2961 282.328 101.558 281.773 101.977C279.536 103.748 278.231 103.911 276.06 105.033C265.061 110.694 250.817 114.262 239.931 116.422C225.695 119.222 214.705 120.344 201.148 122.121C200.276 122.232 201.234 122.774 200.482 122.878C190.943 124.16 181.498 124.796 171.868 125.744C171.091 125.82 172.263 126.347 171.014 126.488C168.753 126.748 165.91 126.941 163.418 126.974C163.085 126.978 162.759 126.979 162.442 126.977C161.126 126.967 162.848 126.326 161.526 126.325C158.45 126.318 155.184 126.415 152.036 126.589C150.699 126.662 152.734 127.249 150.992 127.293C139.124 127.585 127.431 127.118 115.638 124.954C114.826 124.804 114.261 123.449 112.512 123.478C112.338 123.815 112.292 124.231 112.188 124.601C95.0715 122.618 78.4577 118.514 62.0547 112.972C61.3691 112.739 62.3393 113.783 61.0104 113.333C53.2478 110.685 45.6989 107.901 38.3712 103.623C37.6603 103.202 38.5562 102.323 36.2577 101.374C35.8338 101.208 32.5304 99.6647 31.5216 99.3925C31.3869 99.3626 31.721 100.185 30.6484 99.6114C24.4722 96.2784 18.2303 92.0859 12.9955 87.0027C12.1746 86.1944 13.4807 86.5665 12.9074 85.9902C8.80876 81.8513 3.82963 76.9078 2.20294 70.5168C1.33186 66.162 2.83342 67.5201 3.54819 65.2547C3.61608 64.9439 3.7217 62.4638 4.36947 62.4251C5.8648 62.3538 7.37641 63.466 8.9847 63.2371C9.28097 63.1901 9.35304 61.1196 9.90046 62.4662C9.91048 62.5594 10.0253 63.9834 10.3418 64.2979C10.5397 64.5166 11.1259 64.1197 11.3871 64.5358C11.6547 64.9316 11.2018 65.4798 11.6631 66.1817C12.1619 66.8798 12.6527 66.3403 13.3081 67.7717ZM2.55338 62.1024C3.14898 59.9789 1.08424 59.4916 1.5308 61.9663C1.55831 62.0874 2.52704 62.2156 2.55338 62.1024ZM215.861 124.476C213.218 123.956 211.716 125.551 213.586 125.99C215.462 126.424 216.669 124.633 215.861 124.476ZM241.556 119.207C238.523 119.068 238.633 122.071 241.628 120.866C241.802 120.796 241.734 119.214 241.556 119.207ZM6.82251 74.09C6.81809 74.0512 6.04702 72.5935 6.01868 72.5708C4.99536 72.0827 6.56613 75.0745 6.82251 74.09ZM266.759 112.83C265.78 112.661 263.315 113.737 264.544 113.952C265.539 114.126 267.985 113.041 266.759 112.83ZM84.682 11.3372C84.717 11.3622 85.8327 11.2005 85.7816 11.0307C85.6106 10.4825 84.0895 10.9066 84.682 11.3372ZM308.937 99.6922C302.808 102.018 298.272 100.985 304.98 98.7951C306.204 98.3827 302.653 100.515 304.273 100.138C307.22 99.4499 308.515 97.275 311.555 96.8643C312.13 96.7883 309.331 99.5577 308.927 99.6998C308.931 99.6973 308.934 99.6948 308.937 99.6922ZM5.0829 60.9562C5.09858 60.9203 5.24485 59.4011 5.23558 59.3596C4.64652 58.4309 4.32978 61.5966 5.0829 60.9562ZM149.713 7.62063C149.798 7.67647 153.383 7.7637 153.5 7.71449C155.39 6.64488 148.124 6.4625 149.713 7.62063ZM87.3433 114.929C89.1539 114.759 91.0896 115.224 92.1506 116.387C90.5619 115.902 88.9539 115.44 87.3433 114.929Z" fill="#666FEB"/>
</svg>
