<svg width="40" height="40" viewBox="0 0 40 40" fill="none" xmlns="http://www.w3.org/2000/svg">
<path d="M20 0C31.0457 0 40 8.95431 40 20C40 31.0457 31.0457 40 20 40C8.95431 40 0 31.0457 0 20C0 8.95431 8.95431 0 20 0ZM20.4707 9.30859C14.7056 9.30859 9.75015 13.4315 9.75 18.8379C9.75 18.8534 9.75037 18.8692 9.75098 18.8848C9.82949 20.8786 10.5264 22.7991 11.7441 24.3799C12.779 25.7232 14.1476 26.7629 15.7061 27.4043V30.75C15.7061 31.1987 15.9582 31.6096 16.3584 31.8125C16.7587 32.0154 17.2396 31.9762 17.6016 31.7109L22.3418 28.2354C24.616 27.9808 26.7378 26.9529 28.3467 25.3154C30.0381 23.5938 31.0485 21.3166 31.1895 18.9072C31.1908 18.8842 31.1914 18.8609 31.1914 18.8379C31.1913 13.4315 26.2358 9.30859 20.4707 9.30859Z" fill="#F8F8FE"/>
<path d="M17 17.1709H23.6705M17 21.9355H23.6705" stroke="#F8F8FE" stroke-width="1.90586" stroke-linecap="round" stroke-linejoin="round"/>
</svg>
