<svg width="1920" height="224" viewBox="0 0 1920 224" fill="none" xmlns="http://www.w3.org/2000/svg">
<path d="M1349.42 0.342982C1435.82 -3.39749 1523.22 24.3893 1566.42 38.2824C1646.63 64.0784 1723.92 11.0547 1781.12 17.0002C1838.25 22.9379 1923.9 52.0974 1924.12 52.175V223.999H-71.001V203.159C-71.0791 202.942 -112.462 87.6313 -71.001 75.4992C-29.501 63.3559 61.877 24.5009 156.999 36.5002C252.121 48.4996 290.643 91.999 352.821 75.4992C415 58.9995 483.423 31.3355 569.821 24.3889C656.22 17.4423 742.618 45.2291 830.021 59.1223C916.42 73.0154 1002.82 73.0146 1089.22 55.3811C1176.62 38.2818 1263.02 3.5492 1349.42 0.342982Z" fill="#0B148E"/>
</svg>
