<svg width="1920" height="366" viewBox="0 0 1920 366" fill="none" xmlns="http://www.w3.org/2000/svg">
<path fill-rule="evenodd" clip-rule="evenodd" d="M1959.08 43.8551C1959.08 43.8551 1994 50.5033 1932 64.0033C1870 77.5033 1730.61 16.0849 1621.5 29.0033C1522.16 40.7645 1436.81 83.0959 1411 83.0959C1356.83 83.0959 1302.67 42.7996 1248.5 57.9107C1194.33 73.0218 1140.17 143.54 1086 153.614C1031.83 163.688 977.667 113.318 923.5 103.244C869.333 93.1699 815.166 123.392 761 113.318C706.833 103.244 652.666 52.8736 598.499 32.7255C544.332 12.5774 465.007 34.0039 421.999 38.0033C378.992 42.0026 235.406 -0.424342 130.999 0.00321039C26.5922 0.430763 -26.7588 32.7255 -37.9177 32.7255H-65.0009L-58.7303 365.76H-31.6472C-4.56389 365.76 388.103 365.76 442.27 365.76C496.437 365.76 550.603 365.76 604.77 365.76C658.936 365.76 713.104 365.76 767.27 365.76C821.437 365.76 875.604 365.76 929.771 365.76C983.937 365.76 1038.1 365.76 1092.27 365.76C1146.44 365.76 1200.6 365.76 1254.77 365.76C1308.94 365.76 1363.1 365.76 1417.27 365.76C1471.44 365.76 1915.69 365.76 1942.77 365.76H1969.85L1959.08 43.8551Z" fill="#666FEB"/>
</svg>
