<svg width="1920" height="345" viewBox="0 0 1920 345" fill="none" xmlns="http://www.w3.org/2000/svg">
<path fill-rule="evenodd" clip-rule="evenodd" d="M-44.9999 0C-44.9999 0 156.522 81.1118 211 84C265.478 86.8882 380.5 -6 461.083 34.537C541.667 75.0741 542.333 91.6481 596.5 91.6481C650.667 91.6481 704.833 53.5741 759 67.8519C813.167 82.1296 867.333 148.759 921.5 158.278C975.667 167.796 1029.83 120.204 1084 110.685C1138.17 101.167 1192.33 129.722 1246.5 120.204C1300.67 110.685 1354.83 63.0926 1409 44.0556C1463.17 25.0185 1510.42 82.133 1571.5 87.5C1632.58 92.867 1782.03 42.0744 1876.5 44.0556C2017.96 47.022 2078.26 99 2094.5 99H2116.08L2108.5 344.5H2081.42C2054.33 344.5 1625.67 344.5 1571.5 344.5C1517.33 344.5 1463.17 344.5 1409 344.5C1354.83 344.5 1300.67 344.5 1246.5 344.5C1192.33 344.5 1138.17 344.5 1084 344.5C1029.83 344.5 975.667 344.5 921.5 344.5C867.333 344.5 813.167 344.5 759 344.5C704.833 344.5 650.667 344.5 596.5 344.5C542.333 344.5 488.167 344.5 461.083 344.5L-45 329L-44.9999 0Z" fill="#3842D2"/>
</svg>
